{
  "accessors": [
    {
      "bufferView": 2,
      "componentType": 5126,
      "count": 17405,
      "max": [
        1.0,
        0.05285999923944473,
        0.49094998836517334
      ],
      "min": [
        -1.0,
        -0.05285999923944473,
        -0.49094998836517334
      ],
      "type": "VEC3"
    },
    {
      "bufferView": 2,
      "byteOffset": 208860,
      "componentType": 5126,
      "count": 17405,
      "max": [
        1.0,
        1.0,
        1.0
      ],
      "min": [
        -1.0,
        -1.0,
        -1.0
      ],
      "type": "VEC3"
    },
    {
      "bufferView": 1,
      "componentType": 5126,
      "count": 17405,
      "max": [
        0.9965999722480774,
        0.9994999766349792
      ],
      "min": [
        0.0005000000237487257,
        0.0005000000237487257
      ],
      "type": "VEC2"
    },
    {
      "bufferView": 1,
      "byteOffset": 139240,
      "componentType": 5126,
      "count": 17405,
      "max": [
        0.9965999722480774,
        0.9994999766349792
      ],
      "min": [
        0.0005000000237487257,
        0.0005000000237487257
      ],
      "type": "VEC2"
    },
    {
      "bufferView": 1,
      "byteOffset": 278480,
      "componentType": 5126,
      "count": 17405,
      "max": [
        0.9965999722480774,
        0.9994999766349792
      ],
      "min": [
        0.0005000000237487257,
        0.0005000000237487257
      ],
      "type": "VEC2"
    },
    {
      "bufferView": 1,
      "byteOffset": 417720,
      "componentType": 5126,
      "count": 17405,
      "max": [
        0.9965999722480774,
        0.9994999766349792
      ],
      "min": [
        0.0005000000237487257,
        0.0005000000237487257
      ],
      "type": "VEC2"
    },
    {
      "bufferView": 1,
      "byteOffset": 556960,
      "componentType": 5126,
      "count": 17405,
      "max": [
        0.9965999722480774,
        0.9994999766349792
      ],
      "min": [
        0.0005000000237487257,
        0.0005000000237487257
      ],
      "type": "VEC2"
    },
    {
      "bufferView": 1,
      "byteOffset": 696200,
      "componentType": 5126,
      "count": 17405,
      "max": [
        0.9965999722480774,
        0.9994999766349792
      ],
      "min": [
        0.0005000000237487257,
        0.0005000000237487257
      ],
      "type": "VEC2"
    },
    {
      "bufferView": 0,
      "componentType": 5125,
      "count": 70011,
      "type": "SCALAR"
    }
  ],
  "asset": {
    "extras": {
      "author": "DineshThennarasan (https://sketchfab.com/dineshthennarasan)",
      "license": "CC-BY-4.0 (http://creativecommons.org/licenses/by/4.0/)",
      "source": "https://sketchfab.com/3d-models/iphone-6s-eceb31099fef4534a843091eb44a9bc2",
      "title": "Iphone 6s"
    },
    "generator": "Sketchfab-12.67.0",
    "version": "2.0"
  },
  "bufferViews": [
    {
      "buffer": 0,
      "byteLength": 280044,
      "name": "floatBufferViews",
      "target": 34963
    },
    {
      "buffer": 0,
      "byteLength": 835440,
      "byteOffset": 280044,
      "byteStride": 8,
      "name": "floatBufferViews",
      "target": 34962
    },
    {
      "buffer": 0,
      "byteLength": 417720,
      "byteOffset": 1115484,
      "byteStride": 12,
      "name": "floatBufferViews",
      "target": 34962
    }
  ],
  "buffers": [
    {
      "byteLength": 1533204,
      "uri": "scene.bin"
    }
  ],
  "extensionsRequired": [
    "KHR_materials_pbrSpecularGlossiness"
  ],
  "extensionsUsed": [
    "KHR_materials_pbrSpecularGlossiness"
  ],
  "images": [
    {
      "uri": "textures/wire_050050050_diffuse.jpeg"
    }
  ],
  "materials": [
    {
      "doubleSided": true,
      "extensions": {
        "KHR_materials_pbrSpecularGlossiness": {
          "diffuseFactor": [
            1.0,
            1.0,
            1.0,
            1.0
          ],
          "diffuseTexture": {
            "index": 0
          },
          "glossinessFactor": 1.0,
          "specularFactor": [
            0.1602515244,
            0.1602515244,
            0.1602515244
          ]
        }
      },
      "name": "wire_050050050"
    }
  ],
  "meshes": [
    {
      "name": "g IPHONE_0",
      "primitives": [
        {
          "attributes": {
            "NORMAL": 1,
            "POSITION": 0,
            "TEXCOORD_0": 2,
            "TEXCOORD_1": 3,
            "TEXCOORD_2": 4,
            "TEXCOORD_3": 5,
            "TEXCOORD_4": 6,
            "TEXCOORD_5": 7
          },
          "indices": 8,
          "material": 0,
          "mode": 4
        }
      ]
    }
  ],
  "nodes": [
    {
      "children": [
        1
      ],
      "matrix": [
        0.0,
        -1.0,
        -2.220446049250313e-16,
        0.0,
        -1.0,
        0.0,
        0.0,
        0.0,
        0.0,
        2.220446049250313e-16,
        -1.0,
        0.0,
        -1.4155999679132947e-06,
        -1.264700017600262e-06,
        1.5089999294559646e-07,
        1.0
      ],
      "name": "Sketchfab_model"
    },
    {
      "children": [
        2,
        4,
        6
      ],
      "name": "Root"
    },
    {
      "children": [
        3
      ],
      "matrix": [
        -0.29086000000000006,
        0.9551700000000001,
        -0.05519000000000001,
        0.0,
        -0.7711,
        -0.19988000000000003,
        0.6045200000000001,
        0.0,
        0.5663900000000001,
        0.21839000000000003,
        0.7946700000000001,
        0.0,
        4.076250000000001,
        1.00545,
        5.903860000000001,
        1.0
      ],
      "name": "Lamp"
    },
    {
      "name": "Lamp"
    },
    {
      "children": [
        5
      ],
      "matrix": [
        1.0,
        0.0,
        0.0,
        0.0,
        0.0,
        -0.0,
        1.0,
        0.0,
        0.0,
        -1.0,
        -0.0,
        0.0,
        0.0,
        0.0,
        0.0,
        1.0
      ],
      "name": "g IPHONE"
    },
    {
      "mesh": 0,
      "name": "g IPHONE_0"
    },
    {
      "children": [
        7
      ],
      "matrix": [
        -0.29086000000000006,
        0.9551700000000001,
        -0.05519000000000001,
        0.0,
        -0.7711,
        -0.19988000000000003,
        0.6045200000000001,
        0.0,
        0.5663900000000001,
        0.21839000000000003,
        0.7946700000000001,
        0.0,
        0.34819000000000006,
        -0.7276800000000001,
        -1.48071,
        1.0
      ],
      "name": "Lamp.001"
    },
    {
      "name": "Lamp.001"
    }
  ],
  "samplers": [
    {
      "magFilter": 9729,
      "minFilter": 9987,
      "wrapS": 10497,
      "wrapT": 10497
    }
  ],
  "scene": 0,
  "scenes": [
    {
      "name": "Sketchfab_Scene",
      "nodes": [
        0
      ]
    }
  ],
  "textures": [
    {
      "sampler": 0,
      "source": 0
    }
  ]
}
