{
  "accessors": [
    {
      "bufferView": 2,
      "componentType": 5126,
      "count": 308,
      "max": [
        1.0434558391571045,
        0.9950762391090393,
        1.2069488763809204
      ],
      "min": [
        -1.0338642597198486,
        -1.0092778205871582,
        1.1936105489730835
      ],
      "type": "VEC3"
    },
    {
      "bufferView": 2,
      "byteOffset": 3696,
      "componentType": 5126,
      "count": 308,
      "max": [
        6.892997248542088e-07,
        1.0193534194513632e-07,
        1.0
      ],
      "min": [
        2.429770340484083e-08,
        -0.03821750730276108,
        0.9992695450782776
      ],
      "type": "VEC3"
    },
    {
      "bufferView": 1,
      "componentType": 5126,
      "count": 308,
      "max": [
        0.8137500286102295,
        0.9157500267028809
      ],
      "min": [
        0.3647499978542328,
        0.026750000193715096
      ],
      "type": "VEC2"
    },
    {
      "bufferView": 0,
      "componentType": 5125,
      "count": 906,
      "type": "SCALAR"
    },
    {
      "bufferView": 2,
      "byteOffset": 7392,
      "componentType": 5126,
      "count": 853,
      "max": [
        0.20359933376312256,
        -0.7435871958732605,
        1.2006325721740723
      ],
      "min": [
        -0.19400763511657715,
        -0.9369677305221558,
        0.8736106157302856
      ],
      "type": "VEC3"
    },
    {
      "bufferView": 2,
      "byteOffset": 17628,
      "componentType": 5126,
      "count": 853,
      "max": [
        0.9929087162017822,
        1.0,
        0.983424961566925
      ],
      "min": [
        -0.9929087162017822,
        -1.0,
        -0.03448706492781639
      ],
      "type": "VEC3"
    },
    {
      "bufferView": 1,
      "byteOffset": 2464,
      "componentType": 5126,
      "count": 853,
      "max": [
        0.8831250071525574,
        0.8856250047683716
      ],
      "min": [
        0.11187499761581421,
        0.11437500268220901
      ],
      "type": "VEC2"
    },
    {
      "bufferView": 0,
      "byteOffset": 3624,
      "componentType": 5125,
      "count": 4737,
      "type": "SCALAR"
    },
    {
      "bufferView": 2,
      "byteOffset": 27864,
      "componentType": 5126,
      "count": 863,
      "max": [
        1.0434558391571045,
        0.9950762391090393,
        1.2069488763809204
      ],
      "min": [
        -1.0338642597198486,
        -1.0092778205871582,
        -1.1698311567306519
      ],
      "type": "VEC3"
    },
    {
      "bufferView": 2,
      "byteOffset": 38220,
      "componentType": 5126,
      "count": 863,
      "max": [
        1.0,
        1.0,
        1.0
      ],
      "min": [
        -1.0,
        -1.0,
        -1.0
      ],
      "type": "VEC3"
    },
    {
      "bufferView": 1,
      "byteOffset": 9288,
      "componentType": 5126,
      "count": 863,
      "max": [
        0.9786269664764404,
        0.9813846945762634
      ],
      "min": [
        0.012305699288845062,
        0.025146963074803352
      ],
      "type": "VEC2"
    },
    {
      "bufferView": 0,
      "byteOffset": 22572,
      "componentType": 5125,
      "count": 2094,
      "type": "SCALAR"
    },
    {
      "bufferView": 2,
      "byteOffset": 48576,
      "componentType": 5126,
      "count": 735,
      "max": [
        0.8847127556800842,
        0.914343535900116,
        -1.067943811416626
      ],
      "min": [
        0.6372084617614746,
        0.7942308783531189,
        -1.2069488763809204
      ],
      "type": "VEC3"
    },
    {
      "bufferView": 2,
      "byteOffset": 57396,
      "componentType": 5126,
      "count": 735,
      "max": [
        1.0,
        1.0,
        0.49807026982307434
      ],
      "min": [
        -1.0,
        -1.0,
        -0.49807026982307434
      ],
      "type": "VEC3"
    },
    {
      "bufferView": 1,
      "byteOffset": 16192,
      "componentType": 5126,
      "count": 735,
      "max": [
        1.0,
        1.0
      ],
      "min": [
        8.881784197001252e-16,
        2.220446049250313e-16
      ],
      "type": "VEC2"
    },
    {
      "bufferView": 0,
      "byteOffset": 30948,
      "componentType": 5125,
      "count": 3456,
      "type": "SCALAR"
    },
    {
      "bufferView": 2,
      "byteOffset": 66216,
      "componentType": 5126,
      "count": 96,
      "max": [
        -0.5275627374649048,
        0.9950762391090393,
        0.7331555485725403
      ],
      "min": [
        -0.7275822162628174,
        0.9044600129127502,
        -0.6704925894737244
      ],
      "type": "VEC3"
    },
    {
      "bufferView": 2,
      "byteOffset": 67368,
      "componentType": 5126,
      "count": 96,
      "max": [
        1.0,
        1.0,
        1.0
      ],
      "min": [
        -1.0,
        0.0,
        -1.0
      ],
      "type": "VEC3"
    },
    {
      "bufferView": 1,
      "byteOffset": 22072,
      "componentType": 5126,
      "count": 96,
      "max": [
        0.5968771576881409,
        0.573491096496582
      ],
      "min": [
        0.4203437566757202,
        0.4541253447532654
      ],
      "type": "VEC2"
    },
    {
      "bufferView": 0,
      "byteOffset": 44772,
      "componentType": 5125,
      "count": 282,
      "type": "SCALAR"
    },
    {
      "bufferView": 2,
      "byteOffset": 68520,
      "componentType": 5126,
      "count": 304,
      "max": [
        0.20479577779769897,
        0.847050666809082,
        1.1078033447265625
      ],
      "min": [
        -0.19520413875579834,
        0.8050166368484497,
        1.1078033447265625
      ],
      "type": "VEC3"
    },
    {
      "bufferView": 2,
      "byteOffset": 72168,
      "componentType": 5126,
      "count": 304,
      "max": [
        -0.0,
        0.0,
        1.0
      ],
      "min": [
        -0.0,
        0.0,
        -1.0
      ],
      "type": "VEC3"
    },
    {
      "bufferView": 1,
      "byteOffset": 22840,
      "componentType": 5126,
      "count": 304,
      "max": [
        0.7732049226760864,
        0.6012499928474426
      ],
      "min": [
        0.20227670669555664,
        0.38624998927116394
      ],
      "type": "VEC2"
    },
    {
      "bufferView": 0,
      "byteOffset": 45900,
      "componentType": 5125,
      "count": 1404,
      "type": "SCALAR"
    },
    {
      "bufferView": 2,
      "byteOffset": 75816,
      "componentType": 5126,
      "count": 19210,
      "max": [
        1.062870740890503,
        1.0222086906433105,
        0.866782546043396
      ],
      "min": [
        -1.062870740890503,
        -1.0222086906433105,
        -0.8222732543945313
      ],
      "type": "VEC3"
    },
    {
      "bufferView": 2,
      "byteOffset": 306336,
      "componentType": 5126,
      "count": 19210,
      "max": [
        1.0,
        1.0,
        1.0
      ],
      "min": [
        -1.0,
        -1.0,
        -1.0
      ],
      "type": "VEC3"
    },
    {
      "bufferView": 1,
      "byteOffset": 25272,
      "componentType": 5126,
      "count": 19210,
      "max": [
        1.2291282415390015,
        1.0
      ],
      "min": [
        0.0,
        -2.9802322387695313e-08
      ],
      "type": "VEC2"
    },
    {
      "bufferView": 0,
      "byteOffset": 51516,
      "componentType": 5125,
      "count": 86859,
      "type": "SCALAR"
    },
    {
      "bufferView": 2,
      "byteOffset": 536856,
      "componentType": 5126,
      "count": 48,
      "max": [
        0.7679106593132019,
        -1.0113670825958252,
        0.3429436683654785
      ],
      "min": [
        -0.7583189606666565,
        -1.0113670825958252,
        -0.2802806794643402
      ],
      "type": "VEC3"
    },
    {
      "bufferView": 2,
      "byteOffset": 537432,
      "componentType": 5126,
      "count": 48,
      "max": [
        -5.046211626336117e-08,
        -1.0,
        -0.0
      ],
      "min": [
        -5.0462123368788525e-08,
        -1.0,
        -0.0
      ],
      "type": "VEC3"
    },
    {
      "bufferView": 1,
      "byteOffset": 178952,
      "componentType": 5126,
      "count": 48,
      "max": [
        1.328371286392212,
        0.6387500166893005
      ],
      "min": [
        -0.32486864924430847,
        0.32624998688697815
      ],
      "type": "VEC2"
    },
    {
      "bufferView": 0,
      "byteOffset": 398952,
      "componentType": 5125,
      "count": 132,
      "type": "SCALAR"
    },
    {
      "bufferView": 2,
      "byteOffset": 538008,
      "componentType": 5126,
      "count": 2283,
      "max": [
        -7.3564605712890625,
        -10.108942031860352,
        1.0397876501083374
      ],
      "min": [
        -13.132129669189453,
        -12.108942031860352,
        -0.94845050573349
      ],
      "type": "VEC3"
    },
    {
      "bufferView": 2,
      "byteOffset": 565404,
      "componentType": 5126,
      "count": 2283,
      "max": [
        0.9987966418266296,
        1.0,
        0.9987966418266296
      ],
      "min": [
        -0.9987966418266296,
        -1.0,
        -0.9987966418266296
      ],
      "type": "VEC3"
    },
    {
      "bufferView": 1,
      "byteOffset": 179336,
      "componentType": 5126,
      "count": 2283,
      "max": [
        1.0000001192092896,
        1.0000001192092896
      ],
      "min": [
        0.04339159280061722,
        0.0
      ],
      "type": "VEC2"
    },
    {
      "bufferView": 0,
      "byteOffset": 399480,
      "componentType": 5125,
      "count": 7248,
      "type": "SCALAR"
    }
  ],
  "asset": {
    "extras": {
      "author": "Sexy Dog (https://sketchfab.com/sexydog)",
      "license": "CC-BY-4.0 (http://creativecommons.org/licenses/by/4.0/)",
      "source": "https://sketchfab.com/3d-models/iphone-4-213202fe18424b798c2085859e8384ed",
      "title": "iPhone 4"
    },
    "generator": "Sketchfab-12.66.0",
    "version": "2.0"
  },
  "bufferViews": [
    {
      "buffer": 0,
      "byteLength": 428472,
      "name": "floatBufferViews",
      "target": 34963
    },
    {
      "buffer": 0,
      "byteLength": 197600,
      "byteOffset": 428472,
      "byteStride": 8,
      "name": "floatBufferViews",
      "target": 34962
    },
    {
      "buffer": 0,
      "byteLength": 592800,
      "byteOffset": 626072,
      "byteStride": 12,
      "name": "floatBufferViews",
      "target": 34962
    }
  ],
  "buffers": [
    {
      "byteLength": 1218872,
      "uri": "scene.bin"
    }
  ],
  "extensionsUsed": [
    "KHR_texture_transform"
  ],
  "images": [
    {
      "uri": "textures/front_baseColor.png"
    },
    {
      "uri": "textures/home_button_baseColor.png"
    },
    {
      "uri": "textures/black_glass_baseColor.png"
    },
    {
      "uri": "textures/upper_speaker_baseColor.jpeg"
    },
    {
      "uri": "textures/metal_baseColor.png"
    }
  ],
  "materials": [
    {
      "doubleSided": true,
      "name": "front",
      "pbrMetallicRoughness": {
        "baseColorTexture": {
          "index": 0
        },
        "metallicFactor": 0.0,
        "roughnessFactor": 0.0
      }
    },
    {
      "doubleSided": true,
      "name": "home_button",
      "pbrMetallicRoughness": {
        "baseColorTexture": {
          "index": 1
        },
        "metallicFactor": 0.0,
        "roughnessFactor": 0.0
      }
    },
    {
      "doubleSided": true,
      "name": "black_glass",
      "pbrMetallicRoughness": {
        "baseColorTexture": {
          "extensions": {
            "KHR_texture_transform": {
              "offset": [
                0,
                0.001
              ],
              "scale": [
                0.97,
                1
              ]
            }
          },
          "index": 2
        },
        "metallicFactor": 0.0,
        "roughnessFactor": 0.0
      }
    },
    {
      "doubleSided": true,
      "name": "camera_ring",
      "pbrMetallicRoughness": {
        "baseColorFactor": [
          0.8,
          0.8,
          0.8,
          1.0
        ],
        "roughnessFactor": 0.213636
      }
    },
    {
      "doubleSided": true,
      "name": "headphone_jack",
      "pbrMetallicRoughness": {
        "baseColorFactor": [
          0.0,
          0.0,
          0.0,
          1.0
        ],
        "metallicFactor": 0.85,
        "roughnessFactor": 0.208092
      }
    },
    {
      "doubleSided": true,
      "name": "upper_speaker",
      "pbrMetallicRoughness": {
        "baseColorTexture": {
          "index": 3
        },
        "roughnessFactor": 0.851064
      }
    },
    {
      "doubleSided": true,
      "name": "metal",
      "pbrMetallicRoughness": {
        "baseColorTexture": {
          "index": 4
        },
        "roughnessFactor": 0.422727
      }
    },
    {
      "doubleSided": true,
      "name": "speaker_and_microphone",
      "pbrMetallicRoughness": {
        "baseColorTexture": {
          "index": 3
        },
        "metallicFactor": 0.0,
        "roughnessFactor": 0.829787
      }
    }
  ],
  "meshes": [
    {
      "name": "Object_0",
      "primitives": [
        {
          "attributes": {
            "NORMAL": 1,
            "POSITION": 0,
            "TEXCOORD_0": 2
          },
          "indices": 3,
          "material": 0,
          "mode": 4
        }
      ]
    },
    {
      "name": "Object_1",
      "primitives": [
        {
          "attributes": {
            "NORMAL": 5,
            "POSITION": 4,
            "TEXCOORD_0": 6
          },
          "indices": 7,
          "material": 1,
          "mode": 4
        }
      ]
    },
    {
      "name": "Object_2",
      "primitives": [
        {
          "attributes": {
            "NORMAL": 9,
            "POSITION": 8,
            "TEXCOORD_0": 10
          },
          "indices": 11,
          "material": 2,
          "mode": 4
        }
      ]
    },
    {
      "name": "Object_3",
      "primitives": [
        {
          "attributes": {
            "NORMAL": 13,
            "POSITION": 12,
            "TEXCOORD_0": 14
          },
          "indices": 15,
          "material": 3,
          "mode": 4
        }
      ]
    },
    {
      "name": "Object_4",
      "primitives": [
        {
          "attributes": {
            "NORMAL": 17,
            "POSITION": 16,
            "TEXCOORD_0": 18
          },
          "indices": 19,
          "material": 4,
          "mode": 4
        }
      ]
    },
    {
      "name": "Object_5",
      "primitives": [
        {
          "attributes": {
            "NORMAL": 21,
            "POSITION": 20,
            "TEXCOORD_0": 22
          },
          "indices": 23,
          "material": 5,
          "mode": 4
        }
      ]
    },
    {
      "name": "Object_6",
      "primitives": [
        {
          "attributes": {
            "NORMAL": 25,
            "POSITION": 24,
            "TEXCOORD_0": 26
          },
          "indices": 27,
          "material": 6,
          "mode": 4
        }
      ]
    },
    {
      "name": "Object_7",
      "primitives": [
        {
          "attributes": {
            "NORMAL": 29,
            "POSITION": 28,
            "TEXCOORD_0": 30
          },
          "indices": 31,
          "material": 7,
          "mode": 4
        }
      ]
    },
    {
      "name": "Object_8",
      "primitives": [
        {
          "attributes": {
            "NORMAL": 33,
            "POSITION": 32,
            "TEXCOORD_0": 34
          },
          "indices": 35,
          "material": 6,
          "mode": 4
        }
      ]
    }
  ],
  "nodes": [
    {
      "children": [
        1
      ],
      "matrix": [
        1.0,
        0.0,
        0.0,
        0.0,
        0.0,
        2.220446049250313e-16,
        -1.0,
        0.0,
        0.0,
        1.0,
        2.220446049250313e-16,
        0.0,
        0.0,
        0.0,
        0.0,
        1.0
      ],
      "name": "Sketchfab_model"
    },
    {
      "children": [
        2
      ],
      "name": "root"
    },
    {
      "children": [
        3,
        6,
        13
      ],
      "matrix": [
        1.0,
        0.0,
        0.0,
        0.0,
        0.0,
        2.220446049250313e-16,
        1.0,
        0.0,
        0.0,
        -1.0,
        2.220446049250313e-16,
        0.0,
        0.0,
        0.0,
        0.0,
        1.0
      ],
      "name": "GLTF_SceneRootNode"
    },
    {
      "children": [
        4,
        5
      ],
      "matrix": [
        1.161895990371704,
        0.0,
        0.0,
        0.0,
        0.0,
        2.394202947616577,
        0.0,
        0.0,
        0.0,
        0.0,
        0.16556981205940247,
        0.0,
        0.0,
        0.0,
        0.0,
        1.0
      ],
      "name": "black front.002_0"
    },
    {
      "mesh": 0,
      "name": "Object_4"
    },
    {
      "mesh": 1,
      "name": "Object_5"
    },
    {
      "children": [
        7,
        8,
        9,
        10,
        11,
        12
      ],
      "matrix": [
        1.161895990371704,
        0.0,
        0.0,
        0.0,
        0.0,
        2.394202947616577,
        0.0,
        0.0,
        0.0,
        0.0,
        0.16556981205940247,
        0.0,
        0.0,
        0.0,
        0.0,
        1.0
      ],
      "name": "main part.002_1"
    },
    {
      "mesh": 2,
      "name": "Object_7"
    },
    {
      "mesh": 3,
      "name": "Object_8"
    },
    {
      "mesh": 4,
      "name": "Object_9"
    },
    {
      "mesh": 5,
      "name": "Object_10"
    },
    {
      "mesh": 6,
      "name": "Object_11"
    },
    {
      "mesh": 7,
      "name": "Object_12"
    },
    {
      "children": [
        14
      ],
      "matrix": [
        9.575018939966451e-09,
        -0.11359116435050925,
        -0.0,
        0.0,
        0.10359116643667185,
        8.732082167796735e-09,
        0.0,
        0.0,
        0.0,
        -0.0,
        0.11359116435050964,
        0.0,
        0.0,
        0.0,
        0.0,
        1.0
      ],
      "name": "volumen.002_2"
    },
    {
      "mesh": 8,
      "name": "Object_14"
    }
  ],
  "samplers": [
    {
      "magFilter": 9729,
      "minFilter": 9987,
      "wrapS": 10497,
      "wrapT": 10497
    }
  ],
  "scene": 0,
  "scenes": [
    {
      "name": "Sketchfab_Scene",
      "nodes": [
        0
      ]
    }
  ],
  "textures": [
    {
      "sampler": 0,
      "source": 0
    },
    {
      "sampler": 0,
      "source": 1
    },
    {
      "sampler": 0,
      "source": 2
    },
    {
      "sampler": 0,
      "source": 3
    },
    {
      "sampler": 0,
      "source": 4
    }
  ]
}
